<svg viewBox="0 0 24 24" xmlns="http://www.w3.org/2000/svg">
  <path fill="#F7DF1E" d="M3 3h18v18H3V3z" />
  <path fill="#000" d="M15.7 15.3c-.3.4-.6.7-1 .9-.4.2-.9.3-1.4.3-.5 0-1-.1-1.3-.2-.4-.1-.7-.3-1-.6l.9-.9c.2.2.4.3.6.4.2.1.4.1.7.1.3 0 .5-.1.7-.2.2-.1.3-.3.3-.6v-5.2h1.5v5.3c0 .2 0 .4 0 .6zm3.3-2.6c0 .4-.1.8-.2 1.1-.1.3-.3.6-.6.8-.3.2-.6.4-1 .5-.4.1-.8.2-1.2.2-.4 0-.9-.1-1.2-.2-.4-.1-.7-.3-1-.6l1-.9c.2.2.4.3.7.4.3.1.5.1.8.1.3 0 .5-.1.7-.2.2-.1.3-.3.3-.5s-.1-.3-.3-.4c-.2-.1-.5-.2-1-.4-.6-.2-1-.3-1.3-.5-.3-.2-.5-.4-.7-.7s-.2-.6-.2-.9c0-.4.1-.7.2-1 .1-.3.3-.6.6-.8.3-.2.6-.4 1-.5.4-.1.8-.2 1.2-.2.4 0 .8.1 1.1.2.3.1.6.3.9.6l-.9.9c-.2-.2-.4-.3-.6-.4-.2-.1-.5-.1-.7-.1-.3 0-.5.1-.6.2-.2.1-.2.3-.2.4 0 .1 0 .2.1.3.1.1.3.2.6.3.4.1.7.2 1.1.4.4.2.7.3.9.5.2.2.4.4.5.7.1.3.2.6.2 1z" />
</svg>
